<?xml version="1.0" encoding="UTF-8"?>
<svg version="1.1" xmlns="http://www.w3.org/2000/svg" width="512" height="512">
<path d="M0 0 C6.50974923 5.32252038 11.24589004 11.87436525 12.6875 20.25 C13.68173501 32.11944756 12.78721718 41.58105793 5 51.0625 C-2.32885024 58.77277739 -10.99218752 62.23858527 -21.5625 62.625 C-32.36800683 62.3898286 -39.50798529 58.98430547 -47.21875 51.46875 C-53.48812147 44.82508769 -56.26328083 36.98839683 -56.75 27.875 C-56.27757328 17.71782558 -52.81030627 9.53665902 -45.67578125 2.34375 C-32.4691466 -9.35667342 -14.5550146 -10.10841621 0 0 Z " fill="#2462EB" transform="translate(328.3125,274.75)"/>
<path d="M0 0 C7.33379266 5.8281796 12.23035568 14.05163024 13.609375 23.375 C14.58147985 34.49812285 11.65073764 43.72275958 4.609375 52.375 C-1.79957489 59.42798652 -10.38715515 62.81482948 -19.8203125 63.40625 C-29.70833721 63.28603085 -37.79915901 60.4563031 -45.203125 53.875 C-45.925 53.05 -46.646875 52.225 -47.390625 51.375 C-48.07125 50.653125 -48.751875 49.93125 -49.453125 49.1875 C-55.65815484 40.18019862 -56.56199555 31.01146293 -55.390625 20.375 C-53.06224036 10.69205427 -47.58931771 3.3037489 -39.171875 -2.03125 C-27.07535923 -8.3503254 -11.21560574 -7.62367972 0 0 Z " fill="#2462EB" transform="translate(230.390625,176.625)"/>
<path d="M0 0 C2.4254348 1.88644929 3.12650057 2.93984588 4.25 5.75 C4.67386507 9.34173843 4.58250038 12.94822832 4.5625 16.5625 C4.55512817 18.11094604 4.55512817 18.11094604 4.54760742 19.69067383 C4.28498504 36.95506498 0.03202572 52.05208053 -10.75 65.75 C-11.33394531 66.51054687 -11.91789062 67.27109375 -12.51953125 68.0546875 C-24.06855285 82.10802326 -41.65551823 90.47089737 -59.54858398 92.55810547 C-63.51043681 92.90345496 -67.46277766 92.93436289 -71.4375 92.9375 C-72.26572266 92.94974609 -73.09394531 92.96199219 -73.94726562 92.97460938 C-78.30751055 92.98508234 -81.82320614 92.88363366 -85.75 90.75 C-88.41661095 87.98815294 -89.57125053 85.59311357 -89.75 81.75 C-88.46699712 78.14537285 -87.46705736 75.46705736 -84.75 72.75 C-81.81983869 71.76597601 -79.07974607 71.61632864 -76.00390625 71.57421875 C-58.45767686 71.17498362 -44.49914732 68.86172312 -31 56.5625 C-19.44384725 44.17297085 -17.34580458 30.15859203 -16.66601562 13.94335938 C-16.18091746 5.49089135 -16.18091746 5.49089135 -13.87109375 1.51953125 C-9.64408738 -2.00686633 -4.93109023 -2.24140465 0 0 Z " fill="#2462EB" transform="translate(373.75,281.25)"/>
<path d="M0 0 C2.66605761 2.14015378 3.86500383 3.3553244 4.57421875 6.7421875 C4.61160156 7.77601563 4.64898437 8.80984375 4.6875 9.875 C4.74679688 11.02613281 4.80609375 12.17726563 4.8671875 13.36328125 C4.91101563 14.56339844 4.95484375 15.76351563 5 17 C5.61679371 33.4538792 9.52135868 47.1345666 21.6875 58.8125 C33.66088615 68.98167728 45.97997262 71.22458133 61.13085938 71.56640625 C62.54141602 71.61087891 62.54141602 71.61087891 63.98046875 71.65625 C64.82504639 71.67494141 65.66962402 71.69363281 66.53979492 71.71289062 C70.00762819 72.11759162 72.86512535 73.22990649 75.75 75.1875 C77.71360315 78.03472456 77.82363504 80.59027753 78 84 C77.05907943 87.45004209 75.85220165 89.80599873 73 92 C56.51582914 97.02566185 35.64531458 91.82992652 20.87109375 84.43359375 C4.60240809 75.47854455 -6.76020287 61.47943171 -13 44 C-15.61404965 34.87062965 -16.31380951 25.83707548 -16.5 16.375 C-16.53077637 15.43857666 -16.56155273 14.50215332 -16.59326172 13.53735352 C-16.59406211 9.10919068 -16.46989112 5.9649114 -13.65625 2.4140625 C-9.47961625 -1.38176052 -5.30619553 -1.680465 0 0 Z " fill="#2462EB" transform="translate(154,281)"/>
<path d="M0 0 C1.10537109 -0.01611328 2.21074219 -0.03222656 3.34960938 -0.04882812 C4.9496582 -0.04979492 4.9496582 -0.04979492 6.58203125 -0.05078125 C7.53956299 -0.05376221 8.49709473 -0.05674316 9.48364258 -0.05981445 C12.6984873 0.38286168 14.57242582 1.41994823 17.1875 3.3125 C19.0531461 6.36537544 19.18920747 8.21688162 19.125 11.8125 C17.95196077 16.19184647 16.80289127 17.57677718 13.1875 20.3125 C9.85436793 20.99556501 6.58058707 20.95796022 3.1875 20.9375 C-11.71701426 21.26025824 -25.28855683 23.53604462 -36.4375 34.17578125 C-37.8125 35.3125 -37.8125 35.3125 -39.8125 35.3125 C-40.08449219 35.89128906 -40.35648438 36.47007812 -40.63671875 37.06640625 C-41.80658127 39.30119345 -43.14261195 41.21220535 -44.625 43.25 C-52.24577225 54.89543437 -53.52057626 65.20293529 -53.91699219 78.93115234 C-54.28111303 87.54908618 -54.28111303 87.54908618 -57.09375 91.58984375 C-61.13666865 94.15152065 -64.1806342 94.23551674 -68.8125 93.3125 C-72.31140004 91.19858123 -73.51828686 90.19513941 -74.8125 86.3125 C-76.60357039 62.72464574 -72.37357542 41.74299359 -56.8125 23.3125 C-56.27109375 22.65765625 -55.7296875 22.0028125 -55.171875 21.328125 C-41.09647344 5.8309657 -20.23377776 -0.06004088 0 0 Z " fill="#2462EB" transform="translate(212.8125,133.6875)"/>
<path d="M0 0 C20.3779076 7.59598879 34.81741519 19.93280639 44.19140625 39.87109375 C46.22818484 44.60950613 47.67359482 49.32968077 48.69921875 54.37890625 C48.97378906 55.66087891 48.97378906 55.66087891 49.25390625 56.96875 C49.90563717 61.95963675 49.92390343 66.91315027 49.94921875 71.94140625 C49.96984375 72.96943359 49.99046875 73.99746094 50.01171875 75.05664062 C50.06087749 84.5381326 50.06087749 84.5381326 46.69921875 88.37890625 C43.6771448 90.39362222 42.78195176 90.71609659 39.32421875 90.81640625 C38.57398438 90.85636719 37.82375 90.89632812 37.05078125 90.9375 C33.33120328 90.05394577 31.95777247 88.42423518 29.69921875 85.37890625 C29.00920029 82.35471933 29.00562168 79.40883813 29.01171875 76.31640625 C28.96552645 74.60664069 28.9147511 72.89699276 28.859375 71.1875 C28.83633301 70.3610498 28.81329102 69.53459961 28.78955078 68.68310547 C28.24743267 54.85469806 23.06164062 42.6020669 13.69921875 32.37890625 C3.29253373 23.48418725 -8.51646297 18.50326792 -22.3046875 18.23828125 C-23.21025391 18.21894531 -24.11582031 18.19960937 -25.04882812 18.1796875 C-26.92881883 18.14576678 -28.80915822 18.12759889 -30.68945312 18.125 C-35.25526312 18.00133587 -37.62284503 17.86399595 -41.41796875 15.1484375 C-44.30399321 10.90322725 -44.22975913 7.33345497 -43.30078125 2.37890625 C-35.55252147 -8.21038212 -11.15092623 -3.34411267 0 0 Z " fill="#2462EB" transform="translate(328.30078125,136.62109375)"/>
<path d="M0 0 C5.38705186 4.31190495 7.90314607 8.62247276 8.921875 15.48828125 C9.42939113 22.84726509 7.43795556 28.30922027 2.859375 34.05078125 C-1.87419536 39.0324423 -6.66197435 40.74739651 -13.453125 41.05078125 C-20.88576856 40.75654579 -26.78736174 38.07635194 -31.953125 32.67578125 C-36.00597725 26.43287841 -37.10794539 19.99651766 -35.953125 12.67578125 C-33.83096837 5.59512405 -30.39140367 1.56089801 -24.13671875 -2.265625 C-16.07632429 -6.17325809 -7.26738078 -4.92728417 0 0 Z " fill="#2462EB" transform="translate(222.953125,284.32421875)"/>
</svg>
